HIERARCHY
ROOT Hips
{
 OFFSET 0.000000 0.000000 0.000000
 CHANNELS 6 Xposition Yposition Zposition Yrotation Xrotation Zrotation
 JOINT Chest
 {
  OFFSET 0.000000 9.585900 0.002600
  CHANNELS 3 Yrotation Xrotation Zrotation
  JOINT Chest2
  {
   OFFSET 0.000000 9.601200 -0.005300
   CHANNELS 3 Yrotation Xrotation Zrotation
   JOINT Chest3
   {
    OFFSET 0.000000 9.561800 0.000000
    CHANNELS 3 Yrotation Xrotation Zrotation
    JOINT Chest4
    {
     OFFSET 0.000000 9.552100 0.000000
     CHANNELS 3 Yrotation Xrotation Zrotation
     JOINT Neck
     {
      OFFSET 0.000000 14.453000 0.000000
      CHANNELS 3 Yrotation Xrotation Zrotation
      JOINT Head
      {
       OFFSET 0.000000 8.936500 -0.011300
       CHANNELS 3 Yrotation Xrotation Zrotation
       End Site
       {
        OFFSET 0.000000 17.073600 -0.006000
       }
      }
     }
     JOINT RightCollar
     {
      OFFSET -2.921100 9.558500 0.000000
      CHANNELS 3 Yrotation Xrotation Zrotation
      JOINT RightShoulder
      {
       OFFSET -13.519700 0.000000 0.000000
       CHANNELS 3 Yrotation Xrotation Zrotation
       JOINT RightElbow
       {
        OFFSET 0.000000 -29.696600 0.000000
        CHANNELS 3 Yrotation Xrotation Zrotation
        JOINT RightWrist
        {
         OFFSET 0.000000 -24.004700 0.000000
         CHANNELS 3 Yrotation Xrotation Zrotation
         End Site
         {
          OFFSET 0.000000 -17.728500 0.000000
         }
        }
       }
      }
     }
     JOINT LeftCollar
     {
      OFFSET 2.921100 9.558500 0.000000
      CHANNELS 3 Yrotation Xrotation Zrotation
      JOINT LeftShoulder
      {
       OFFSET 13.519700 0.000000 0.000000
       CHANNELS 3 Yrotation Xrotation Zrotation
       JOINT LeftElbow
       {
        OFFSET 0.000000 -29.696600 0.000000
        CHANNELS 3 Yrotation Xrotation Zrotation
        JOINT LeftWrist
        {
         OFFSET 0.000000 -24.004700 0.000000
         CHANNELS 3 Yrotation Xrotation Zrotation
         End Site
         {
          OFFSET 0.000000 -17.728500 0.000000
         }
        }
       }
      }
     }
    }
   }
  }
 }
 JOINT RightHip
 {
  OFFSET -7.771700 -0.012900 -0.001300
  CHANNELS 3 Yrotation Xrotation Zrotation
  JOINT RightKnee
  {
   OFFSET 0.000000 -40.869800 0.001200
   CHANNELS 3 Yrotation Xrotation Zrotation
   JOINT RightAnkle
   {
    OFFSET 0.000000 -39.717900 0.002100
    CHANNELS 3 Yrotation Xrotation Zrotation
    JOINT RightToe
    {
     OFFSET 0.000000 -4.965400 11.033500
     CHANNELS 3 Yrotation Xrotation Zrotation
     End Site
     {
      OFFSET 0.000000 -1.423100 5.872300
     }
    }
   }
  }
 }
 JOINT LeftHip
 {
  OFFSET 7.771700 -0.012900 -0.001300
  CHANNELS 3 Yrotation Xrotation Zrotation
  JOINT LeftKnee
  {
   OFFSET 0.000000 -40.869800 0.001200
   CHANNELS 3 Yrotation Xrotation Zrotation
   JOINT LeftAnkle
   {
    OFFSET 0.000000 -39.717900 0.002100
    CHANNELS 3 Yrotation Xrotation Zrotation
    JOINT LeftToe
    {
     OFFSET 0.000000 -4.965400 11.033500
     CHANNELS 3 Yrotation Xrotation Zrotation
     End Site
     {
      OFFSET 0.000000 -1.423100 5.872300
     }
    }
   }
  }
 }
}
MOTION
Frames: 16
Frame Time: 0.008333
-48.118629 56.246074 44.730114 -167.415335 -31.102589 -10.701925 -5.562997 13.530893 4.990172 -2.864693 7.694914 1.491176 -3.553728 9.610886 1.793434 -2.866866 7.714285 1.504839 -1.291701 20.299151 -4.791729 -0.288409 -4.049169 -4.832516 3.679356 -4.798194 -4.378365 3.989357 -17.171712 4.840168 57.784286 -32.005323 -39.283099 11.679907 5.946884 -25.535084 -10.158077 -0.354502 -4.084165 -6.905847 -12.075071 1.254686 -56.351929 -29.585028 61.106263 -4.157534 -15.284815 2.886803 -22.840602 -27.567441 1.808525 65.949912 87.901580 63.161883 1.000232 -26.849795 -1.256028 -0.278038 1.755998 -0.134782 -17.153573 -44.303262 6.036816 174.754317 73.434914 171.949959 -0.491302 -23.236585 -0.135898 -0.883200 -2.851390 -0.399166
-48.120432 56.243104 44.726703 -167.404585 -31.097316 -10.709592 -5.555783 13.514692 4.981681 -2.872763 7.695741 1.495538 -3.556502 9.603355 1.790603 -2.867281 7.709905 1.501272 -1.173039 20.314936 -4.784763 -0.161828 -4.029394 -4.853675 3.680032 -4.781998 -4.358348 4.017435 -17.172276 4.828115 57.754438 -32.001221 -39.275314 11.699615 5.963527 -25.564795 -10.159069 -0.331664 -4.076359 -6.905591 -12.086205 1.254355 -56.438373 -29.561570 61.106720 -4.144380 -15.222765 2.917771 -22.860346 -27.568974 1.810740 66.091013 87.899198 63.295633 1.001282 -26.856567 -1.254274 -0.281886 1.756494 -0.133385 -17.172437 -44.310448 6.035416 174.743246 73.423240 171.938758 -0.477630 -23.239681 -0.141058 -0.892844 -2.857155 -0.401345
-48.123899 56.240313 44.723346 -167.390028 -31.092459 -10.709542 -5.562830 13.503871 4.969097 -2.875490 7.691797 1.492063 -3.556810 9.593777 1.788071 -2.868684 7.677917 1.483175 -1.051933 20.357419 -4.765395 -0.037884 -4.010423 -4.877008 3.684226 -4.751176 -4.341579 4.052246 -17.165307 4.833556 57.706990 -31.992160 -39.265841 11.711463 5.968190 -25.567396 -10.158606 -0.280271 -4.063526 -6.908829 -12.082958 1.259531 -56.472756 -29.541218 61.121500 -4.126844 -15.205397 2.916448 -22.876341 -27.574771 1.803797 66.297993 87.900959 63.493280 0.995930 -26.861288 -1.248451 -0.278673 1.754532 -0.131973 -17.183560 -44.309008 6.018750 174.795191 73.425212 171.991603 -0.461916 -23.272058 -0.148645 -0.882715 -2.831459 -0.399351
-48.129171 56.235901 44.722947 -167.371732 -31.068571 -10.696627 -5.583781 13.477020 4.945703 -2.867307 7.666801 1.476911 -3.564704 9.612369 1.800274 -2.869336 7.658801 1.474712 -0.939607 20.374223 -4.764479 0.082411 -3.990524 -4.902253 3.682874 -4.729590 -4.333142 4.089721 -17.173472 4.831913 57.666482 -31.976279 -39.251186 11.711798 5.968892 -25.569835 -10.155305 -0.251968 -4.065611 -6.910570 -12.089707 1.259584 -56.557384 -29.508079 61.134052 -4.092343 -15.149646 2.935636 -22.885255 -27.607995 1.786110 66.640801 87.901652 63.833180 0.984691 -26.866626 -1.240077 -0.273232 1.752917 -0.129614 -17.192289 -44.337707 5.995429 174.799975 73.417484 171.995064 -0.484324 -23.297536 -0.143428 -0.862550 -2.813867 -0.394258
-48.131073 56.233753 44.720168 -167.364771 -31.062048 -10.701041 -5.588029 13.467543 4.943898 -2.867596 7.663019 1.475524 -3.565428 9.608515 1.798820 -2.869580 7.647114 1.469704 -0.832685 20.383508 -4.769979 0.198400 -3.970377 -4.928233 3.681012 -4.708854 -4.323494 4.115414 -17.184612 4.828085 57.619132 -31.969799 -39.213954 11.722579 5.965610 -25.587094 -10.156284 -0.226425 -4.071463 -6.932388 -12.105830 1.247560 -56.572341 -29.458034 61.157191 -4.104308 -15.138043 2.942509 -22.890439 -27.613178 1.787987 66.748004 87.902193 63.939002 0.977810 -26.867325 -1.235081 -0.269572 1.750277 -0.127748 -17.210684 -44.342956 5.995995 174.816559 73.411670 172.010130 -0.474078 -23.306609 -0.150977 -0.863210 -2.812352 -0.391310
-48.132187 56.232325 44.717139 -167.357829 -31.058615 -10.710997 -5.581810 13.450202 4.937538 -2.875610 7.670054 1.485545 -3.564973 9.591860 1.790759 -2.870647 7.664909 1.478164 -0.732304 20.376641 -4.785463 0.309969 -3.951059 -4.953377 3.676138 -4.708181 -4.321928 4.126535 -17.182711 4.829661 57.602097 -31.969868 -39.201215 11.720175 5.972217 -25.581284 -10.156805 -0.217420 -4.078721 -6.951072 -12.112178 1.241058 -56.640814 -29.414312 61.188328 -4.063489 -15.086124 2.958440 -22.899206 -27.612081 1.793935 66.813839 87.900451 64.003098 0.973267 -26.866058 -1.228784 -0.268181 1.747656 -0.128531 -17.236249 -44.341885 6.005075 174.839707 73.405755 172.029847 -0.462387 -23.319512 -0.157946 -0.861316 -2.808452 -0.390259
-48.133526 56.230875 44.714896 -167.347544 -31.051424 -10.721459 -5.588542 13.443527 4.941255 -2.867068 7.641799 1.461019 -3.567653 9.600497 1.801723 -2.871110 7.658205 1.475471 -0.633019 20.390896 -4.786598 0.417786 -3.931283 -4.977606 3.663385 -4.681375 -4.307019 4.152193 -17.195558 4.829751 57.566861 -31.969219 -39.179222 11.717328 5.981066 -25.575985 -10.161008 -0.182005 -4.089088 -6.972391 -12.117451 1.244119 -56.639703 -29.382128 61.208742 -4.058624 -15.078178 2.959978 -22.905986 -27.613956 1.798263 66.863795 87.898875 64.054881 0.968068 -26.866724 -1.225257 -0.265149 1.749368 -0.125331 -17.263424 -44.348930 6.015603 174.838196 73.396467 172.022760 -0.454319 -23.319120 -0.159583 -0.868097 -2.816329 -0.391839
-48.125246 56.227867 44.717118 -167.323496 -31.004062 -10.791793 -5.597004 13.396817 4.993430 -2.870177 7.633550 1.459349 -3.564964 9.595478 1.797373 -2.872605 7.615001 1.454619 -0.529961 20.440524 -4.767372 0.522990 -3.910434 -5.001667 3.648136 -4.616990 -4.264719 4.155018 -17.227443 4.821329 57.481617 -32.009376 -39.092442 11.769196 5.981603 -25.574885 -10.161829 -0.108215 -4.067817 -6.978872 -12.118446 1.239683 -56.700815 -29.365071 61.228283 -4.035220 -15.027774 2.981414 -22.959180 -27.561792 1.853341 64.960565 87.840970 62.142509 1.087192 -27.065964 -1.214723 -0.379496 1.970304 -0.176578 -17.361685 -44.367358 6.109385 174.877781 73.396579 172.064805 -0.415050 -23.392536 -0.166712 -0.895078 -2.755828 -0.400776
-48.128554 56.226788 44.715362 -167.325241 -31.001240 -10.787033 -5.595638 13.383627 4.979161 -2.870641 7.623364 1.456378 -3.563151 9.588108 1.793422 -2.873489 7.625461 1.460413 -0.437739 20.437438 -4.777724 0.626516 -3.891110 -5.025821 3.630025 -4.598904 -4.252114 4.163201 -17.235030 4.819000 57.453079 -32.035580 -39.062121 11.740161 5.972931 -25.567700 -10.158330 -0.087426 -4.078225 -6.987561 -12.117905 1.247667 -56.719074 -29.352091 61.251315 -4.021866 -15.015391 2.973154 -22.951396 -27.566707 1.844610 65.006573 87.839843 62.192064 1.083882 -27.068830 -1.212872 -0.375959 1.972745 -0.174848 -17.365852 -44.361890 6.108672 174.950163 73.402571 172.126445 -0.400548 -23.423468 -0.166859 -0.891902 -2.734230 -0.397450
-48.131307 56.226286 44.713248 -167.325317 -31.001984 -10.788220 -5.594139 13.370307 4.969285 -2.869676 7.617003 1.455054 -3.567412 9.579261 1.786938 -2.871646 7.637701 1.466329 -0.342734 20.431835 -4.786660 0.726886 -3.875206 -5.048927 3.590418 -4.572819 -4.234885 4.188863 -17.250650 4.814348 57.442233 -32.054550 -39.039570 11.736759 5.967326 -25.572164 -10.154442 -0.062219 -4.088384 -6.984768 -12.121601 1.246123 -56.782942 -29.352168 61.285686 -4.002862 -14.962740 2.977442 -22.951828 -27.567317 1.836735 64.989144 87.843660 62.178268 1.100082 -27.062455 -1.218995 -0.373505 1.967769 -0.172266 -17.380303 -44.357368 6.117980 174.986757 73.399999 172.148372 -0.390705 -23.433695 -0.163729 -0.896722 -2.733511 -0.398395
-48.134550 56.225782 44.711408 -167.323576 -31.002517 -10.787568 -5.592890 13.344783 4.951238 -2.869311 7.624327 1.460912 -3.568835 9.569385 1.782038 -2.864439 7.602829 1.451981 -0.251443 20.469753 -4.772302 0.824187 -3.864318 -5.069747 3.555377 -4.504099 -4.198111 4.184731 -17.263012 4.811751 57.453676 -32.065048 -39.024894 11.730054 5.958246 -25.580069 -10.159138 0.009486 -4.078975 -6.949098 -12.118771 1.221436 -56.849310 -29.345511 61.312606 -3.987442 -14.930400 2.998753 -22.959412 -27.564565 1.826307 64.962198 87.838076 62.150747 1.110489 -27.070344 -1.225612 -0.373691 1.977300 -0.171423 -17.386173 -44.349140 6.124438 175.037918 73.403969 172.187537 -0.393647 -23.456617 -0.157492 -0.889859 -2.717186 -0.394820
-48.137466 56.225020 44.710218 -167.314938 -30.998503 -10.790920 -5.600112 13.332249 4.944795 -2.869354 7.617844 1.458011 -3.561906 9.556175 1.776548 -2.868818 7.623983 1.460833 -0.165975 20.448883 -4.779915 0.921219 -3.860662 -5.089395 3.533350 -4.487656 -4.187236 4.184018 -17.276932 4.807737 57.466500 -32.066791 -39.016449 11.724866 5.949986 -25.588227 -10.160983 0.020923 -4.080698 -6.939374 -12.119004 1.218298 -56.879223 -29.349640 61.324393 -3.981604 -14.903493 3.009546 -22.979179 -27.562071 1.819877 64.937555 87.827458 62.120360 1.117261 -27.085521 -1.228649 -0.385581 1.994115 -0.173366 -17.392809 -44.347943 6.126366 175.069382 73.406028 172.215144 -0.395530 -23.473482 -0.159247 -0.885989 -2.704711 -0.386879
-48.127953 56.220098 44.717391 -167.347908 -30.932703 -10.833726 -5.569949 13.260424 5.008804 -2.870104 7.611331 1.454821 -3.560904 9.548255 1.771459 -2.869015 7.618036 1.458412 -0.078644 20.444533 -4.777310 1.017003 -3.863266 -5.108668 3.520188 -4.450691 -4.167064 4.180847 -17.290004 4.801501 57.478600 -32.066016 -39.011588 11.722018 5.945579 -25.588845 -10.160452 0.052942 -4.075823 -6.927451 -12.118715 1.213964 -56.901371 -29.351024 61.331530 -3.978267 -14.878521 3.025436 -23.015892 -27.558860 1.883488 62.941053 87.761035 60.109794 1.270394 -27.192551 -1.226977 -0.519663 2.158173 -0.235869 -17.446328 -44.394022 6.235175 175.087333 73.407150 172.234880 -0.376002 -23.530767 -0.159777 -0.906804 -2.654163 -0.392586
-48.145742 56.221800 44.710553 -167.296784 -30.977829 -10.773660 -5.626057 13.297144 4.911287 -2.871276 7.608125 1.453857 -3.564769 9.513470 1.756810 -2.869806 7.632867 1.462069 0.010462 20.441551 -4.774666 1.107133 -3.868899 -5.126050 3.513047 -4.410074 -4.147873 4.192324 -17.299353 4.792995 57.497202 -32.063623 -39.047587 11.711041 5.939512 -25.576634 -10.158176 0.090337 -4.079069 -6.893696 -12.115102 1.211086 -56.957406 -29.356109 61.345295 -3.973538 -14.844211 3.047834 -23.003501 -27.587377 1.782785 64.952041 87.820620 62.132545 1.131102 -27.105351 -1.230490 -0.382808 2.015185 -0.177949 -17.377028 -44.363366 6.104018 175.110465 73.412465 172.251959 -0.446775 -23.529645 -0.147683 -0.848860 -2.662786 -0.370807
-48.146712 56.221270 44.709651 -167.295065 -30.976221 -10.776614 -5.624497 13.289626 4.909611 -2.870778 7.602212 1.451968 -3.566019 9.510552 1.755745 -2.872369 7.620351 1.459074 0.091137 20.437940 -4.772677 1.188485 -3.874341 -5.140661 3.498301 -4.368697 -4.131552 4.207229 -17.312881 4.785586 57.508864 -32.058716 -39.067985 11.711916 5.943622 -25.590349 -10.157430 0.130736 -4.082744 -6.887942 -12.119642 1.217153 -57.004164 -29.363705 61.366648 -3.962059 -14.810005 3.053264 -23.008218 -27.588397 1.782369 64.967877 87.820350 62.150461 1.124266 -27.102983 -1.226744 -0.378200 2.013483 -0.179613 -17.379849 -44.364379 6.110826 175.115092 73.408145 172.252787 -0.448001 -23.532368 -0.144237 -0.852501 -2.665084 -0.371025
-48.133715 56.217649 44.715734 -167.344587 -30.923675 -10.822854 -5.572244 13.234326 4.987141 -2.866347 7.591510 1.448107 -3.571022 9.519345 1.759385 -2.870043 7.599094 1.449632 0.164373 20.437557 -4.764520 1.259582 -3.877580 -5.153484 3.475800 -4.326082 -4.114907 4.225397 -17.323034 4.781920 57.523622 -32.055155 -39.098478 11.712501 5.941176 -25.585302 -10.158366 0.168334 -4.077312 -6.886688 -12.119500 1.220165 -57.036987 -29.374671 61.382644 -3.954496 -14.786241 3.060711 -23.023746 -27.575114 1.863025 63.040442 87.759641 60.211339 1.262363 -27.192680 -1.221598 -0.508126 2.159496 -0.237578 -17.426336 -44.394905 6.239842 175.150167 73.412163 172.282648 -0.408484 -23.571325 -0.135833 -0.892586 -2.630048 -0.387597
